# Blender v2.65 (sub 0) OBJ File: 'quit.blend'
# www.blender.org
mtllib RTG.mtl
o Cylinder
v -0.500000 0.585937 -0.999638
v -1.000000 0.792968 -0.499819
v -0.500000 1.414063 -0.999638
v -1.000000 1.207031 -0.499819
v -0.500001 1.999638 -0.414064
v -1.000000 1.499819 -0.207032
v -0.500001 1.999638 0.414063
v -1.000000 1.499819 0.207032
v -0.500000 1.414064 0.999638
v -1.000000 1.207032 0.499819
v -0.500000 0.585937 0.999638
v -1.000000 0.792968 0.499819
v -0.499999 0.000362 0.414064
v -1.000000 0.500181 0.207032
v -0.499999 0.000362 -0.414063
v -1.000000 0.500181 -0.207032
v 0.500000 1.414064 -0.999638
v 1.000000 1.207032 -0.499819
v 0.500000 0.585937 -0.999638
v 1.000000 0.792968 -0.499819
v 0.500000 0.000362 -0.414064
v 1.000000 0.500181 -0.207032
v 0.500000 0.000362 0.414063
v 1.000000 0.500181 0.207032
v 0.500000 0.585937 0.999638
v 1.000000 0.792968 0.499819
v 0.500000 1.414064 0.999638
v 1.000000 1.207032 0.499819
v 0.500001 1.999638 0.414064
v 1.000001 1.499819 0.207032
v 0.500001 1.999638 -0.414063
v 1.000001 1.499819 -0.207032
v 0.500000 1.414063 -0.999638
v -0.500000 1.414064 -0.999638
v 0.500000 0.585936 -0.999638
v -0.500000 0.585937 -0.999638
v 0.499999 0.000362 -0.414064
v -0.500001 0.000363 -0.414064
v 0.499999 0.000362 0.414063
v -0.500001 0.000363 0.414063
v 0.500000 0.585936 0.999638
v -0.500000 0.585937 0.999638
v 0.500000 1.414063 0.999638
v -0.500000 1.414064 0.999638
v 0.500001 1.999637 0.414064
v -0.499999 1.999638 0.414064
v 0.500001 1.999637 -0.414063
v -0.499999 1.999638 -0.414063
vt 0.375759 0.751830
vt 0.298002 0.674072
vt 0.220244 0.706280
vt 0.220244 0.816246
vt 0.596314 0.440176
vt 0.596314 0.330210
vt 0.518556 0.298001
vt 0.440798 0.375759
vt 0.064728 0.751830
vt 0.142486 0.674072
vt 0.110277 0.596314
vt 0.000311 0.596314
vt 0.142486 0.518556
vt 0.064728 0.440798
vt 0.376382 0.440799
vt 0.454140 0.550765
vt 0.531897 0.550765
vt 0.531897 0.440798
vt 0.609655 0.550765
vt 0.687413 0.440798
vt 0.330210 0.596314
vt 0.298002 0.518556
vt 0.220244 0.486348
vt 0.609655 0.661353
vt 0.687413 0.551387
vt 0.531897 0.551387
vt 0.531897 0.661353
vt 0.376382 0.551387
vt 0.454139 0.661353
vt 0.000311 0.959043
vt 0.000311 0.849077
vt 0.078069 0.816869
vt 0.155827 0.894626
vt 0.375759 0.375759
vt 0.298001 0.298001
vt 0.330210 0.220244
vt 0.440176 0.220244
vt 0.298001 0.142486
vt 0.375759 0.064728
vt 0.220244 0.110277
vt 0.220244 0.000311
vt 0.142486 0.142486
vt 0.064728 0.064728
vt 0.110277 0.220244
vt 0.000311 0.220244
vt 0.220244 0.330210
vt 0.142486 0.298001
vt 0.064728 0.375759
vt 0.220244 0.440176
vt 0.532520 0.661976
vt 0.642486 0.661976
vt 0.674694 0.739734
vt 0.596936 0.817491
vt 0.376382 0.661976
vt 0.531897 0.661976
vt 0.531897 0.881908
vt 0.376382 0.881908
vt 0.843551 0.330832
vt 0.688035 0.330832
vt 0.688035 0.550765
vt 0.843551 0.550765
vt 0.908590 0.000311
vt 0.753074 0.000311
vt 0.753074 0.220244
vt 0.908590 0.220244
vt 0.596314 0.000311
vt 0.440798 0.000311
vt 0.440798 0.220244
vt 0.596314 0.220244
vt 0.752452 0.000311
vt 0.596936 0.000311
vt 0.596936 0.220244
vt 0.752452 0.220244
vt 0.688035 0.771942
vt 0.843551 0.771942
vt 0.843551 0.991874
vt 0.688035 0.991874
vt 0.688035 0.551387
vt 0.843551 0.551387
vt 0.843551 0.771320
vt 0.688035 0.771320
vt 0.844173 0.551387
vt 0.999689 0.551387
vt 0.999689 0.771320
vt 0.844173 0.771320
vn -0.706979 -0.000001 -0.707235
vn -0.706979 0.500090 -0.500091
vn -0.706979 0.707234 -0.000000
vn -0.706979 0.500090 0.500090
vn -0.706979 -0.000001 0.707235
vn -0.706978 -0.500091 0.500091
vn -1.000000 -0.000001 0.000000
vn -0.706978 -0.500091 -0.500090
vn -0.706978 -0.707235 0.000000
vn 0.706979 -0.000000 -0.707235
vn 0.706978 -0.500091 -0.500091
vn 0.706978 -0.707235 -0.000000
vn 0.706978 -0.500091 0.500091
vn 0.706979 -0.000000 0.707235
vn 0.706979 0.500090 0.500091
vn 1.000000 -0.000001 -0.000000
vn 0.706979 0.500090 -0.500090
vn 0.706979 0.707234 0.000000
vn 0.000000 0.000000 -1.000000
vn -0.000000 -0.707107 -0.707107
vn -0.000001 -1.000000 -0.000000
vn -0.000000 -0.707107 0.707107
vn -0.000000 0.000000 1.000000
vn 0.000000 0.707107 0.707107
vn 0.000000 0.707107 -0.707107
vn 0.000001 1.000000 0.000000
usemtl None
s off
f 1/1/1 2/2/1 4/3/1
f 1/1/1 4/3/1 3/4/1
f 3/5/2 4/6/2 6/7/2
f 3/5/2 6/7/2 5/8/2
f 5/9/3 6/10/3 8/11/3
f 5/9/3 8/11/3 7/12/3
f 7/12/4 8/11/4 10/13/4
f 7/12/4 10/13/4 9/14/4
f 9/15/5 10/16/5 12/17/5
f 9/15/5 12/17/5 11/18/5
f 11/18/6 12/17/6 14/19/6
f 11/18/6 14/19/6 13/20/6
f 4/3/7 2/2/7 6/10/7
f 2/2/7 8/11/7 6/10/7
f 2/2/7 16/21/7 8/11/7
f 16/21/7 10/13/7 8/11/7
f 16/21/7 14/22/7 10/13/7
f 14/22/7 12/23/7 10/13/7
f 2/24/8 1/25/8 15/26/8
f 2/24/8 15/26/8 16/27/8
f 13/28/9 14/29/9 16/27/9
f 13/28/9 16/27/9 15/26/9
f 17/30/10 18/31/10 20/32/10
f 17/30/10 20/32/10 19/33/10
f 19/34/11 20/35/11 22/36/11
f 19/34/11 22/36/11 21/37/11
f 21/37/12 22/36/12 24/38/12
f 21/37/12 24/38/12 23/39/12
f 23/39/13 24/38/13 26/40/13
f 23/39/13 26/40/13 25/41/13
f 25/41/14 26/40/14 28/42/14
f 25/41/14 28/42/14 27/43/14
f 27/43/15 28/42/15 30/44/15
f 27/43/15 30/44/15 29/45/15
f 20/35/16 18/46/16 32/47/16
f 20/35/16 32/47/16 22/36/16
f 32/47/16 30/44/16 22/36/16
f 30/44/16 28/42/16 22/36/16
f 28/42/16 24/38/16 22/36/16
f 28/42/16 26/40/16 24/38/16
f 31/48/17 32/47/17 18/46/17
f 31/48/17 18/46/17 17/49/17
f 29/50/18 30/51/18 32/52/18
f 29/50/18 32/52/18 31/53/18
f 33/54/19 35/55/19 36/56/19
f 33/54/19 36/56/19 34/57/19
f 35/58/20 37/59/20 38/60/20
f 35/58/20 38/60/20 36/61/20
f 37/62/21 39/63/21 40/64/21
f 37/62/21 40/64/21 38/65/21
f 39/66/22 41/67/22 42/68/22
f 39/66/22 42/68/22 40/69/22
f 41/70/23 43/71/23 44/72/23
f 41/70/23 44/72/23 42/73/23
f 43/74/24 45/75/24 46/76/24
f 43/74/24 46/76/24 44/77/24
f 47/78/25 33/79/25 34/80/25
f 47/78/25 34/80/25 48/81/25
f 45/82/26 47/83/26 48/84/26
f 45/82/26 48/84/26 46/85/26
