# Blender v2.65 (sub 0) OBJ File: ''
# www.blender.org
mtllib mainRocket.mtl
o Seperator
v -0.143506 6.000000 -0.346455
v -0.143506 6.500000 -0.346455
v 0.143506 6.000000 -0.346455
v 0.143506 6.500000 -0.346455
v 0.346455 6.000000 -0.143506
v 0.346455 6.500000 -0.143506
v 0.346455 6.000000 0.143506
v 0.346455 6.500000 0.143506
v 0.143506 6.000000 0.346455
v 0.143506 6.500000 0.346455
v -0.143506 6.000000 0.346455
v -0.143506 6.500000 0.346455
v -0.346455 6.000000 0.143506
v -0.346455 6.500000 0.143506
v -0.346455 6.000000 -0.143506
v -0.346455 6.500000 -0.143506
vt 0.708208 0.701364
vt 0.411742 0.702274
vt 0.411220 0.532095
vt 0.707686 0.531185
vt 0.410850 0.411760
vt 0.707316 0.410850
vt 0.290514 0.410850
vt 0.291423 0.707316
vt 0.121244 0.707839
vt 0.120335 0.411373
vt 0.000910 0.708208
vt 0.000000 0.411742
vt 0.822610 0.296988
vt 0.821701 0.000522
vt 0.991880 0.000000
vt 0.992789 0.296466
vt 0.999090 0.410850
vt 1.000000 0.707316
vt 0.879665 0.707686
vt 0.878756 0.411220
vt 0.701365 0.000000
vt 0.821701 0.120335
vt 0.821701 0.290515
vt 0.531186 0.000000
vt 0.701365 0.410850
vt 0.531186 0.410850
vt 0.410850 0.120335
vt 0.410850 0.290515
vt 0.708577 0.821699
vt 0.412111 0.822608
vt 0.709486 0.708208
vt 0.708577 0.411742
vt 0.000000 0.120335
vt 0.120335 0.000000
vt 0.000000 0.290515
vt 0.290515 0.000000
vt 0.120335 0.410850
vt 0.290515 0.410850
vn -0.000000 0.000000 -1.000000
vn 0.707107 0.000000 -0.707107
vn 1.000000 0.000000 -0.000000
vn 0.707107 0.000000 0.707107
vn 0.000000 0.000000 1.000000
vn -0.707107 0.000000 0.707107
vn 0.000000 1.000000 0.000000
vn -0.707107 0.000000 -0.707107
vn -1.000000 0.000000 0.000000
vn -0.000000 -1.000000 -0.000000
usemtl None
s off
f 1/1/1 2/2/1 4/3/1
f 1/1/1 4/3/1 3/4/1
f 3/4/2 4/3/2 6/5/2
f 3/4/2 6/5/2 5/6/2
f 5/7/3 6/8/3 8/9/3
f 5/7/3 8/9/3 7/10/3
f 7/10/4 8/9/4 10/11/4
f 7/10/4 10/11/4 9/12/4
f 9/13/5 10/14/5 12/15/5
f 9/13/5 12/15/5 11/16/5
f 11/17/6 12/18/6 14/19/6
f 11/17/6 14/19/6 13/20/6
f 4/21/7 2/22/7 16/23/7
f 4/21/7 16/23/7 6/24/7
f 16/23/7 14/25/7 6/24/7
f 14/25/7 12/26/7 6/24/7
f 12/26/7 8/27/7 6/24/7
f 12/26/7 10/28/7 8/27/7
f 2/2/8 1/1/8 15/29/8
f 2/2/8 15/29/8 16/30/8
f 13/20/9 14/19/9 16/31/9
f 13/20/9 16/31/9 15/32/9
f 1/33/10 3/34/10 15/35/10
f 3/34/10 5/36/10 15/35/10
f 5/36/10 13/37/10 15/35/10
f 5/36/10 11/38/10 13/37/10
f 5/36/10 7/27/10 11/38/10
f 7/27/10 9/28/10 11/38/10
o stage2Nozzle
v -0.143506 6.000000 -0.346455
v -0.047835 6.500000 -0.115485
v 0.143506 6.000000 -0.346455
v 0.047835 6.500000 -0.115485
v 0.346455 6.000000 -0.143506
v 0.115485 6.500000 -0.047835
v 0.346455 6.000000 0.143506
v 0.115485 6.500000 0.047835
v 0.143506 6.000000 0.346455
v 0.047835 6.500000 0.115485
v -0.143506 6.000000 0.346455
v -0.047835 6.500000 0.115485
v -0.346455 6.000000 0.143506
v -0.115485 6.500000 0.047835
v -0.346455 6.000000 -0.143506
v -0.115485 6.500000 -0.047835
vt 0.995101 0.641260
vt 0.828434 0.710296
vt 0.779619 0.661480
vt 0.848654 0.494813
vt 0.710583 0.661480
vt 0.641547 0.494813
vt 0.661768 0.710296
vt 0.495101 0.641260
vt 0.661768 0.779331
vt 0.495101 0.848367
vt 0.710583 0.828147
vt 0.641548 0.994813
vt 0.779619 0.828147
vt 0.848654 0.994813
vt 0.828434 0.779331
vt 0.995101 0.848367
vt -0.004899 0.641260
vt 0.141548 0.494813
vt -0.004899 0.848367
vt 0.348654 0.494813
vt 0.141547 0.994813
vt 0.348654 0.994813
vn -0.000000 0.419359 -0.907821
vn 0.641926 0.419359 -0.641926
vn 0.907821 0.419358 -0.000000
vn 0.641926 0.419358 0.641926
vn 0.000000 0.419359 0.907821
vn -0.641926 0.419359 0.641926
vn -0.641926 0.419358 -0.641926
vn -0.907821 0.419359 0.000000
usemtl None_untitled.006
s off
f 17/39/11 18/40/11 20/41/11
f 17/39/11 20/41/11 19/42/11
f 19/42/12 20/41/12 22/43/12
f 19/42/12 22/43/12 21/44/12
f 21/44/13 22/43/13 24/45/13
f 21/44/13 24/45/13 23/46/13
f 23/46/14 24/45/14 26/47/14
f 23/46/14 26/47/14 25/48/14
f 25/48/15 26/47/15 28/49/15
f 25/48/15 28/49/15 27/50/15
f 27/50/16 28/49/16 30/51/16
f 27/50/16 30/51/16 29/52/16
f 20/41/7 18/40/7 32/53/7
f 20/41/7 32/53/7 22/43/7
f 32/53/7 30/51/7 22/43/7
f 30/51/7 28/49/7 22/43/7
f 28/49/7 24/45/7 22/43/7
f 28/49/7 26/47/7 24/45/7
f 18/40/17 17/39/17 31/54/17
f 18/40/17 31/54/17 32/53/17
f 29/52/18 30/51/18 32/53/18
f 29/52/18 32/53/18 31/54/18
f 17/55/10 19/56/10 31/57/10
f 19/56/10 21/58/10 31/57/10
f 21/58/10 29/59/10 31/57/10
f 21/58/10 27/60/10 29/59/10
f 21/58/10 23/46/10 27/60/10
f 23/46/10 25/48/10 27/60/10
o stage2Cone
v -0.143506 9.500000 -0.346455
v -0.047835 10.000000 -0.115485
v 0.143506 9.500000 -0.346455
v 0.047835 10.000000 -0.115485
v 0.346455 9.500000 -0.143506
v 0.115485 10.000000 -0.047835
v 0.346455 9.500000 0.143506
v 0.115485 10.000000 0.047835
v 0.143506 9.500000 0.346455
v 0.047835 10.000000 0.115485
v -0.143506 9.500000 0.346455
v -0.047835 10.000000 0.115485
v -0.346455 9.500000 0.143506
v -0.115485 10.000000 0.047835
v -0.346455 9.500000 -0.143506
v -0.115485 10.000000 -0.047835
vt 1.000000 0.146447
vt 0.833333 0.215482
vt 0.784518 0.166667
vt 0.853553 0.000000
vt 0.715482 0.166667
vt 0.646447 0.000000
vt 0.666667 0.215482
vt 0.500000 0.146447
vt 0.666667 0.284518
vt 0.500000 0.353553
vt 0.715482 0.333333
vt 0.646447 0.500000
vt 0.784518 0.333333
vt 0.853553 0.500000
vt 0.833333 0.284518
vt 1.000000 0.353553
vt 0.000000 0.146447
vt 0.146447 0.000000
vt 0.000000 0.353553
vt 0.353553 0.000000
vt 0.146447 0.500000
vt 0.353553 0.500000
usemtl None_untitled.007
s off
f 33/61/11 34/62/11 36/63/11
f 33/61/11 36/63/11 35/64/11
f 35/64/12 36/63/12 38/65/12
f 35/64/12 38/65/12 37/66/12
f 37/66/13 38/65/13 40/67/13
f 37/66/13 40/67/13 39/68/13
f 39/68/14 40/67/14 42/69/14
f 39/68/14 42/69/14 41/70/14
f 41/70/15 42/69/15 44/71/15
f 41/70/15 44/71/15 43/72/15
f 43/72/16 44/71/16 46/73/16
f 43/72/16 46/73/16 45/74/16
f 36/63/7 34/62/7 48/75/7
f 36/63/7 48/75/7 38/65/7
f 48/75/7 46/73/7 38/65/7
f 46/73/7 44/71/7 38/65/7
f 44/71/7 40/67/7 38/65/7
f 44/71/7 42/69/7 40/67/7
f 34/62/17 33/61/17 47/76/17
f 34/62/17 47/76/17 48/75/17
f 45/74/18 46/73/18 48/75/18
f 45/74/18 48/75/18 47/76/18
f 33/77/10 35/78/10 47/79/10
f 35/78/10 37/80/10 47/79/10
f 37/80/10 45/81/10 47/79/10
f 37/80/10 43/82/10 45/81/10
f 37/80/10 39/68/10 43/82/10
f 39/68/10 41/70/10 43/82/10
o stage2Cylinder
v -0.143506 6.500000 -0.346455
v -0.143506 9.500000 -0.346455
v 0.143506 6.500000 -0.346455
v 0.143506 9.500000 -0.346455
v 0.346455 6.500000 -0.143506
v 0.346455 9.500000 -0.143506
v 0.346455 6.500000 0.143506
v 0.346455 9.500000 0.143506
v 0.143506 6.500000 0.346455
v 0.143506 9.500000 0.346455
v -0.143506 6.500000 0.346455
v -0.143506 9.500000 0.346455
v -0.346455 6.500000 0.143506
v -0.346455 9.500000 0.143506
v -0.346455 6.500000 -0.143506
v -0.346455 9.500000 -0.143506
vt 0.996437 0.250108
vt 0.996437 0.328566
vt 0.940959 0.194630
vt 0.940959 0.384044
vt 0.862501 0.194630
vt 0.807022 0.250108
vt 0.862501 0.384044
vt 0.807022 0.328566
vt 0.400000 0.000000
vt 0.400000 1.000000
vt 0.300000 1.000000
vt 0.300000 0.000000
vt 0.200000 1.000000
vt 0.200000 0.000000
vt 0.100000 1.000000
vt 0.100000 0.000000
vt 0.000000 1.000000
vt 0.000000 0.000000
vt 0.800000 0.000000
vt 0.800000 1.000000
vt 0.700000 1.000000
vt 0.700000 0.000000
vt 0.600000 1.000000
vt 0.600000 0.000000
vt 0.938581 0.016231
vt 0.983769 0.061419
vt 0.983769 0.125324
vt 0.874676 0.016231
vt 0.938581 0.170511
vt 0.874676 0.170511
vt 0.829489 0.061419
vt 0.829489 0.125324
vt 0.500000 0.000000
vt 0.500000 1.000000
usemtl None_untitled.004
s off
f 49/83/10 51/84/10 63/85/10
f 51/84/10 53/86/10 63/85/10
f 53/86/10 61/87/10 63/85/10
f 53/86/10 59/88/10 61/87/10
f 53/86/10 55/89/10 59/88/10
f 55/89/10 57/90/10 59/88/10
usemtl None_NONE
f 49/91/1 50/92/1 52/93/1
f 49/91/1 52/93/1 51/94/1
f 51/94/2 52/93/2 54/95/2
f 51/94/2 54/95/2 53/96/2
f 53/96/3 54/95/3 56/97/3
f 53/96/3 56/97/3 55/98/3
f 55/98/4 56/97/4 58/99/4
f 55/98/4 58/99/4 57/100/4
f 57/101/5 58/102/5 60/103/5
f 57/101/5 60/103/5 59/104/5
f 59/104/6 60/103/6 62/105/6
f 59/104/6 62/105/6 61/106/6
f 52/107/7 50/108/7 64/109/7
f 52/107/7 64/109/7 54/110/7
f 64/109/7 62/111/7 54/110/7
f 62/111/7 60/112/7 54/110/7
f 60/112/7 56/113/7 54/110/7
f 60/112/7 58/114/7 56/113/7
f 50/92/8 49/91/8 63/115/8
f 50/92/8 63/115/8 64/116/8
f 61/106/9 62/105/9 64/116/9
f 61/106/9 64/116/9 63/115/9
o stage1Cone
v -0.191342 5.750000 -0.461940
v -0.143506 6.000000 -0.346455
v 0.191342 5.750000 -0.461940
v 0.143506 6.000000 -0.346455
v 0.461940 5.750000 -0.191342
v 0.346455 6.000000 -0.143506
v 0.461940 5.750000 0.191342
v 0.346455 6.000000 0.143506
v 0.191342 5.750000 0.461940
v 0.143506 6.000000 0.346455
v -0.191342 5.750000 0.461940
v -0.143506 6.000000 0.346455
v -0.461940 5.750000 0.191342
v -0.346455 6.000000 0.143506
v -0.461940 5.750000 -0.191342
v -0.346455 6.000000 -0.143506
vt 0.853553 0.000000
vt 0.827665 0.062500
vt 0.672335 0.062500
vt 0.646447 0.000000
vt 0.562500 0.172335
vt 0.500000 0.146447
vt 0.562500 0.327665
vt 0.500000 0.353553
vt 0.672335 0.437500
vt 0.646447 0.500000
vt 0.827665 0.437500
vt 0.853553 0.500000
vt 0.937500 0.327665
vt 1.000000 0.353553
vt 0.937500 0.172335
vt 1.000000 0.146447
vt 0.146447 0.000000
vt 0.353553 0.000000
vt 0.000000 0.146447
vt 0.000000 0.353553
vt 0.146447 0.500000
vt 0.353553 0.500000
vn -0.000000 0.419358 -0.907821
vn 0.641926 0.419358 -0.641926
vn 0.000000 0.419358 0.907821
vn -0.641926 0.419358 0.641926
vn -0.907821 0.419358 0.000000
usemtl None_untitled.001
s off
f 65/117/19 66/118/19 68/119/19
f 65/117/19 68/119/19 67/120/19
f 67/120/20 68/119/20 70/121/20
f 67/120/20 70/121/20 69/122/20
f 69/122/13 70/121/13 72/123/13
f 69/122/13 72/123/13 71/124/13
f 71/124/14 72/123/14 74/125/14
f 71/124/14 74/125/14 73/126/14
f 73/126/21 74/125/21 76/127/21
f 73/126/21 76/127/21 75/128/21
f 75/128/22 76/127/22 78/129/22
f 75/128/22 78/129/22 77/130/22
f 68/119/7 66/118/7 80/131/7
f 68/119/7 80/131/7 70/121/7
f 80/131/7 78/129/7 70/121/7
f 78/129/7 76/127/7 70/121/7
f 76/127/7 72/123/7 70/121/7
f 76/127/7 74/125/7 72/123/7
f 66/118/17 65/117/17 79/132/17
f 66/118/17 79/132/17 80/131/17
f 77/130/23 78/129/23 80/131/23
f 77/130/23 80/131/23 79/132/23
f 65/133/10 67/134/10 79/135/10
f 67/134/10 69/122/10 79/135/10
f 69/122/10 77/136/10 79/135/10
f 69/122/10 75/137/10 77/136/10
f 69/122/10 71/124/10 75/137/10
f 71/124/10 73/138/10 75/137/10
o stage1Nozzle
v -0.191342 0.000000 -0.461940
v -0.095671 0.750000 -0.230970
v 0.191342 0.000000 -0.461940
v 0.095671 0.750000 -0.230970
v 0.461940 0.000000 -0.191342
v 0.230970 0.750000 -0.095671
v 0.461940 0.000000 0.191342
v 0.230970 0.750000 0.095671
v 0.191342 0.000000 0.461940
v 0.095671 0.750000 0.230970
v -0.191342 0.000000 0.461940
v -0.095671 0.750000 0.230970
v -0.461940 0.000000 0.191342
v -0.230970 0.750000 0.095671
v -0.461940 0.000000 -0.191342
v -0.230970 0.750000 -0.095671
vt 0.840190 1.062387
vt 0.773995 0.996191
vt 0.773995 0.902577
vt 0.933805 1.062387
vt 0.840190 0.836382
vt 0.933805 0.836382
vt 1.000000 0.996191
vt 1.000000 0.902577
vt 0.491955 0.000000
vt 0.856069 0.114120
vt 0.836384 0.180255
vt 0.452584 0.132270
vt 0.836097 0.273869
vt 0.452010 0.319498
vt 0.855376 0.340124
vt 0.490569 0.452008
vt 0.773995 0.836382
vt 0.819624 0.452295
vt 0.913238 0.452008
vt 0.961223 0.835807
vt 0.321985 0.474894
vt 0.253295 0.850239
vt 0.185247 0.838797
vt 0.185890 0.452010
vt 0.092302 0.849971
vt 0.000000 0.474358
vt 0.681693 0.452275
vt 0.773995 0.827888
vt 0.588105 0.850237
vt 0.588748 0.463450
vt 0.452010 0.827353
vt 0.520700 0.452008
vt 0.000000 0.132391
vt 0.132391 0.000000
vt 0.000000 0.319619
vt 0.319619 0.000000
vt 0.132391 0.452010
vt 0.319619 0.452010
vt 0.452010 0.132391
vt 0.452010 0.319619
vn -0.000000 0.294319 -0.955707
vn 0.675787 0.294319 -0.675787
vn 0.955707 0.294319 -0.000000
vn 0.675787 0.294319 0.675787
vn 0.000000 0.294319 0.955707
vn -0.675787 0.294319 0.675787
vn -0.675787 0.294319 -0.675787
vn -0.955707 0.294319 0.000000
usemtl None_stage1nozzle
s off
f 84/139/7 82/140/7 96/141/7
f 84/139/7 96/141/7 86/142/7
f 96/141/7 94/143/7 86/142/7
f 94/143/7 92/144/7 86/142/7
f 92/144/7 88/145/7 86/142/7
f 92/144/7 90/146/7 88/145/7
usemtl None_NONE
f 81/147/24 82/148/24 84/149/24
f 81/147/24 84/149/24 83/150/24
f 83/150/25 84/149/25 86/151/25
f 83/150/25 86/151/25 85/152/25
f 85/152/26 86/151/26 88/153/26
f 85/152/26 88/153/26 87/154/26
f 87/155/27 88/156/27 90/157/27
f 87/155/27 90/157/27 89/158/27
f 89/159/28 90/160/28 92/161/28
f 89/159/28 92/161/28 91/162/28
f 91/162/29 92/161/29 94/163/29
f 91/162/29 94/163/29 93/164/29
f 82/165/30 81/166/30 95/167/30
f 82/165/30 95/167/30 96/168/30
f 93/169/31 94/170/31 96/168/31
f 93/169/31 96/168/31 95/167/31
f 81/171/10 83/172/10 95/173/10
f 83/172/10 85/174/10 95/173/10
f 85/174/10 93/175/10 95/173/10
f 85/174/10 91/176/10 93/175/10
f 85/174/10 87/177/10 91/176/10
f 87/177/10 89/178/10 91/176/10
o stage1Cylinder
v -0.191342 0.750000 -0.461940
v -0.191342 5.750000 -0.461940
v 0.191342 0.750000 -0.461940
v 0.191342 5.750000 -0.461940
v 0.461940 0.750000 -0.191342
v 0.461940 5.750000 -0.191342
v 0.461940 0.750000 0.191342
v 0.461940 5.750000 0.191342
v 0.191342 0.750000 0.461940
v 0.191342 5.750000 0.461940
v -0.191342 0.750000 0.461940
v -0.191342 5.750000 0.461940
v -0.461940 0.750000 0.191342
v -0.461940 5.750000 0.191342
v -0.461940 0.750000 -0.191342
v -0.461940 5.750000 -0.191342
vt 0.400220 0.001137
vt 0.400220 0.998863
vt 0.300448 0.998863
vt 0.300448 0.001137
vt 0.200675 0.998863
vt 0.200675 0.001137
vt 0.100903 0.998863
vt 0.100903 0.001137
vt 0.001130 0.998863
vt 0.001130 0.001137
vt 0.799311 0.001137
vt 0.799311 0.998863
vt 0.699539 0.998863
vt 0.699539 0.001137
vt 0.599766 0.998863
vt 0.599766 0.001137
vt 0.989609 0.246781
vt 0.989609 0.312833
vt 0.942903 0.359539
vt 0.942903 0.200075
vt 0.876851 0.359539
vt 0.830145 0.312833
vt 0.876851 0.200075
vt 0.830145 0.246781
vt 0.499993 0.001137
vt 0.499993 0.998863
vt 0.827958 0.059168
vt 0.876253 0.010873
vt 0.827958 0.127468
vt 0.944553 0.010873
vt 0.876253 0.175763
vt 0.944553 0.175763
vt 0.992848 0.059168
vt 0.992848 0.127468
usemtl None_stage1Cylinder.001
s off
f 97/179/1 98/180/1 100/181/1
f 97/179/1 100/181/1 99/182/1
f 99/182/2 100/181/2 102/183/2
f 99/182/2 102/183/2 101/184/2
f 101/184/3 102/183/3 104/185/3
f 101/184/3 104/185/3 103/186/3
f 103/186/4 104/185/4 106/187/4
f 103/186/4 106/187/4 105/188/4
f 105/189/5 106/190/5 108/191/5
f 105/189/5 108/191/5 107/192/5
f 107/192/6 108/191/6 110/193/6
f 107/192/6 110/193/6 109/194/6
f 100/195/7 98/196/7 112/197/7
f 100/195/7 112/197/7 102/198/7
f 112/197/7 110/199/7 102/198/7
f 110/199/7 108/200/7 102/198/7
f 108/200/7 104/201/7 102/198/7
f 108/200/7 106/202/7 104/201/7
f 98/180/8 97/179/8 111/203/8
f 98/180/8 111/203/8 112/204/8
f 109/194/9 110/193/9 112/204/9
f 109/194/9 112/204/9 111/203/9
f 97/205/10 99/206/10 111/207/10
f 99/206/10 101/208/10 111/207/10
f 101/208/10 109/209/10 111/207/10
f 101/208/10 107/210/10 109/209/10
f 101/208/10 103/211/10 107/210/10
f 103/211/10 105/212/10 107/210/10
