# Blender v2.65 (sub 0) OBJ File: 'booster.blend'
# www.blender.org
mtllib rocket.mtl
o nozzle
v -0.095671 0.000000 -0.230970
v -0.047835 0.500000 -0.115485
v 0.095671 0.000000 -0.230970
v 0.047835 0.500000 -0.115485
v 0.230970 0.000000 -0.095671
v 0.115485 0.500000 -0.047835
v 0.230970 0.000000 0.095671
v 0.115485 0.500000 0.047835
v 0.095671 0.000000 0.230970
v 0.047835 0.500000 0.115485
v -0.095671 0.000000 0.230970
v -0.047835 0.500000 0.115485
v -0.230970 0.000000 0.095671
v -0.115485 0.500000 0.047835
v -0.230970 0.000000 -0.095671
v -0.115485 0.500000 -0.047835
vt 0.647256 0.504045
vt 0.691640 0.011569
vt 0.783428 0.011288
vt 0.830832 0.503482
vt 0.780311 0.504107
vt 0.776877 0.994506
vt 0.710349 0.994475
vt 0.463681 0.454480
vt 0.419297 0.946956
vt 0.327510 0.947238
vt 0.280106 0.455043
vt 0.596736 0.504045
vt 0.533643 0.994475
vt 0.467115 0.994506
vt 0.463681 0.504107
vt 0.463681 0.504045
vt 0.508064 0.011569
vt 0.599852 0.011288
vt 0.647256 0.503482
vt 0.963887 0.501749
vt 0.900794 0.992179
vt 0.834266 0.992209
vt 0.830832 0.501810
vt 0.463681 1.012142
vt 0.463681 1.103930
vt 0.398777 1.168834
vt 0.398777 0.947238
vt 0.306989 1.168834
vt 0.242085 1.103930
vt 0.306989 0.947238
vt 0.242085 1.012142
vt 0.834266 0.501749
vt 0.830832 0.011349
vt 0.963887 0.011288
vt 0.900794 0.501718
vt 0.204064 0.454480
vt 0.159680 0.946956
vt 0.067893 0.947238
vt 0.020488 0.455043
vt 0.020488 0.141096
vt 0.150297 0.011288
vt 0.020488 0.324672
vt 0.333873 0.011288
vt 0.150297 0.454480
vt 0.333873 0.454480
vt 0.463681 0.141096
vt 0.463681 0.324672
vn -0.000000 0.225045 -0.974348
vn 0.688968 0.225045 -0.688968
vn 0.974348 0.225045 -0.000000
vn 0.688968 0.225045 0.688968
vn 0.000000 0.225045 0.974348
vn -0.688968 0.225045 0.688968
vn 0.000000 1.000000 0.000000
vn -0.688968 0.225045 -0.688968
vn -0.974348 0.225045 0.000000
vn -0.000000 -1.000000 -0.000000
usemtl None
s off
f 1/1/1 2/2/1 4/3/1
f 1/1/1 4/3/1 3/4/1
f 3/5/2 4/6/2 6/7/2
f 3/5/2 6/7/2 5/1/2
f 5/8/3 6/9/3 8/10/3
f 5/8/3 8/10/3 7/11/3
f 7/12/4 8/13/4 10/14/4
f 7/12/4 10/14/4 9/15/4
f 9/16/5 10/17/5 12/18/5
f 9/16/5 12/18/5 11/19/5
f 11/20/6 12/21/6 14/22/6
f 11/20/6 14/22/6 13/23/6
f 4/24/7 2/25/7 16/26/7
f 4/24/7 16/26/7 6/27/7
f 16/26/7 14/28/7 6/27/7
f 14/28/7 12/29/7 6/27/7
f 12/29/7 8/30/7 6/27/7
f 12/29/7 10/31/7 8/30/7
f 2/32/8 1/33/8 15/34/8
f 2/32/8 15/34/8 16/35/8
f 13/36/9 14/37/9 16/38/9
f 13/36/9 16/38/9 15/39/9
f 1/40/10 3/41/10 15/42/10
f 3/41/10 5/43/10 15/42/10
f 5/43/10 13/44/10 15/42/10
f 5/43/10 11/45/10 13/44/10
f 5/43/10 7/46/10 11/45/10
f 7/46/10 9/47/10 11/45/10
o Cone
v -0.095671 3.000000 -0.230970
v -0.047835 3.500000 -0.115485
v 0.095671 3.000000 -0.230970
v 0.047835 3.500000 -0.115485
v 0.230970 3.000000 -0.095671
v 0.115485 3.500000 -0.047835
v 0.230970 3.000000 0.095671
v 0.115485 3.500000 0.047835
v 0.095671 3.000000 0.230970
v 0.047835 3.500000 0.115485
v -0.095671 3.000000 0.230970
v -0.047835 3.500000 0.115485
v -0.230970 3.000000 0.095671
v -0.115485 3.500000 0.047835
v -0.230970 3.000000 -0.095671
v -0.115485 3.500000 -0.047835
vt 0.684068 0.844736
vt 0.724126 0.400255
vt 0.806969 0.400001
vt 0.849753 0.844228
vt 0.399999 0.026006
vt 0.301322 0.457484
vt 0.242703 0.444481
vt 0.282761 0.000000
vt 0.159860 0.444735
vt 0.117076 0.000508
vt 0.101322 0.458098
vt 0.000000 0.027233
vt 0.684068 0.415229
vt 0.601982 0.853897
vt 0.519489 0.846283
vt 0.519084 0.400001
vt 0.459947 0.854026
vt 0.399999 0.415487
vt 1.000000 0.258579
vt 1.000000 0.341422
vt 0.941421 0.400001
vt 0.941421 0.200000
vt 0.858578 0.400001
vt 0.800000 0.341422
vt 0.858578 0.200000
vt 0.800000 0.258579
vt 0.059948 0.912123
vt 0.000000 0.473584
vt 0.119085 0.458098
vt 0.119491 0.904380
vt 0.284069 0.473326
vt 0.201983 0.911994
vt 0.399999 0.117158
vt 0.517156 0.000000
vt 0.399999 0.282843
vt 0.682842 0.000000
vt 0.517156 0.400001
vt 0.682842 0.400001
vt 0.800000 0.117158
vt 0.800000 0.282843
vn -0.688969 0.225045 -0.688968
usemtl None_nose
s off
f 17/48/1 18/49/1 20/50/1
f 17/48/1 20/50/1 19/51/1
f 19/52/2 20/53/2 22/54/2
f 19/52/2 22/54/2 21/55/2
f 21/55/3 22/54/3 24/56/3
f 21/55/3 24/56/3 23/57/3
f 23/57/4 24/56/4 26/58/4
f 23/57/4 26/58/4 25/59/4
f 25/60/5 26/61/5 28/62/5
f 25/60/5 28/62/5 27/63/5
f 27/63/6 28/62/6 30/64/6
f 27/63/6 30/64/6 29/65/6
f 20/66/7 18/67/7 32/68/7
f 20/66/7 32/68/7 22/69/7
f 32/68/7 30/70/7 22/69/7
f 30/70/7 28/71/7 22/69/7
f 28/71/7 24/72/7 22/69/7
f 28/71/7 26/73/7 24/72/7
f 18/74/11 17/75/11 31/76/11
f 18/74/11 31/76/11 32/77/11
f 29/78/9 30/79/9 32/77/9
f 29/78/9 32/77/9 31/76/9
f 17/80/10 19/81/10 31/82/10
f 19/81/10 21/83/10 31/82/10
f 21/83/10 29/84/10 31/82/10
f 21/83/10 27/85/10 29/84/10
f 21/83/10 23/86/10 27/85/10
f 23/86/10 25/87/10 27/85/10
o Cylinder
v -0.095671 0.500000 -0.230970
v -0.095671 3.000000 -0.230970
v 0.095671 0.500000 -0.230970
v 0.095671 3.000000 -0.230970
v 0.230970 0.500000 -0.095671
v 0.230970 3.000000 -0.095671
v 0.230970 0.500000 0.095671
v 0.230970 3.000000 0.095671
v 0.095671 0.500000 0.230970
v 0.095671 3.000000 0.230970
v -0.095671 0.500000 0.230970
v -0.095671 3.000000 0.230970
v -0.230970 0.500000 0.095671
v -0.230970 3.000000 0.095671
v -0.230970 0.500000 -0.095671
v -0.230970 3.000000 -0.095671
vt 0.390625 0.228016
vt 0.390625 0.998547
vt 0.294309 0.998547
vt 0.294309 0.228016
vt 0.197992 0.998547
vt 0.197992 0.228016
vt 0.101676 0.998547
vt 0.101676 0.228016
vt 0.005359 0.998547
vt 0.005359 0.228016
vt 0.775890 0.228016
vt 0.775890 0.998547
vt 0.679574 0.998547
vt 0.679574 0.228016
vt 0.583258 0.998547
vt 0.583258 0.228016
vt 0.726178 3.012109
vt 0.893942 3.035405
vt 1.124186 3.030779
vt 0.620668 2.974536
vt 1.264098 3.000940
vt 1.361797 2.963367
vt 0.532266 2.944697
vt 0.448064 2.940071
vt 0.486941 0.228016
vt 0.486941 0.998547
vt 0.757932 0.173491
vt 0.757932 0.076509
vt 0.826509 0.242068
vt 0.826509 0.007932
vt 0.923491 0.242068
vt 0.992068 0.173491
vt 0.923491 0.007932
vt 0.992068 0.076509
vn -0.000000 0.000000 -1.000000
vn 0.707107 0.000000 -0.707107
vn 1.000000 0.000000 -0.000000
vn 0.707107 0.000000 0.707107
vn -0.000000 0.000000 1.000000
vn -0.707107 0.000000 0.707107
vn -0.707107 0.000000 -0.707107
vn -1.000000 0.000000 0.000000
usemtl None_untitled.001
s off
f 33/88/12 34/89/12 36/90/12
f 33/88/12 36/90/12 35/91/12
f 35/91/13 36/90/13 38/92/13
f 35/91/13 38/92/13 37/93/13
f 37/93/14 38/92/14 40/94/14
f 37/93/14 40/94/14 39/95/14
f 39/95/15 40/94/15 42/96/15
f 39/95/15 42/96/15 41/97/15
f 41/98/16 42/99/16 44/100/16
f 41/98/16 44/100/16 43/101/16
f 43/101/17 44/100/17 46/102/17
f 43/101/17 46/102/17 45/103/17
f 36/104/7 34/105/7 48/106/7
f 36/104/7 48/106/7 38/107/7
f 48/106/7 46/108/7 38/107/7
f 46/108/7 44/109/7 38/107/7
f 44/109/7 40/110/7 38/107/7
f 44/109/7 42/111/7 40/110/7
f 34/89/18 33/88/18 47/112/18
f 34/89/18 47/112/18 48/113/18
f 45/103/19 46/102/19 48/113/19
f 45/103/19 48/113/19 47/112/19
f 33/114/10 35/115/10 47/116/10
f 35/115/10 37/117/10 47/116/10
f 37/117/10 45/118/10 47/116/10
f 37/117/10 43/119/10 45/118/10
f 37/117/10 39/120/10 43/119/10
f 39/120/10 41/121/10 43/119/10
